<svg width="24" height="24" viewBox="0 0 24 24" fill="none" xmlns="http://www.w3.org/2000/svg">
<path d="M21.4927 24C20.8553 24 20.218 23.7653 19.7149 23.2623L0.72956 4.28362C-0.243187 3.31121 -0.243187 1.70171 0.72956 0.729305C1.70231 -0.243102 3.31237 -0.243102 4.28511 0.729305L23.2704 19.708C24.2432 20.6804 24.2432 22.2899 23.2704 23.2623C22.7673 23.7653 22.13 24 21.4927 24Z" fill="#6564F1"/>
<path d="M2.50734 24C1.87002 24 1.2327 23.7653 0.72956 23.2623C-0.243187 22.2899 -0.243187 20.6804 0.72956 19.708L19.7149 0.729305C20.6876 -0.243102 22.2977 -0.243102 23.2704 0.729305C24.2432 1.70171 24.2432 3.31121 23.2704 4.28362L4.28511 23.2623C3.81551 23.7653 3.14465 24 2.50734 24Z" fill="#6564F1"/>
</svg>
