<svg xmlns="http://www.w3.org/2000/svg" xmlns:xlink="http://www.w3.org/1999/xlink" viewBox="0 0 512 512" width="512" height="512" preserveAspectRatio="xMidYMid meet" style="width: 100%; height: 100%; transform: translate3d(0px, 0px, 0px); content-visibility: visible;"><defs><clipPath id="__lottie_element_2"><rect width="512" height="512" x="0" y="0"></rect></clipPath><clipPath id="__lottie_element_5"><path d="M0,0 L512,0 L512,512 L0,512z"></path></clipPath><g id="__lottie_element_8"><g transform="matrix(1,0,0,1,11,22)" opacity="1" style="display: block;"><g opacity="1" transform="matrix(1,0,0,1,304.82000732421875,213.2239990234375)"><path fill="rgb(218,255,232)" fill-opacity="1" d=" M-8.682999610900879,-30.86400032043457 C-21.21500015258789,-29.665000915527344 -34.36000061035156,-25.33799934387207 -42.36800003051758,-15.074999809265137 C-44.459999084472656,-12.395000457763672 -44.14500045776367,-8.196999549865723 -43.683998107910156,-5.034999847412109 C-41.22800064086914,11.815999984741211 -27.916000366210938,24.910999298095703 -11.918999671936035,29.636999130249023 C-6.565000057220459,31.2189998626709 -0.9290000200271606,31.874000549316406 4.642000198364258,31.457000732421875 C9.095999717712402,31.124000549316406 13.496000289916992,30.097000122070312 17.617000579833984,28.368999481201172 C28.014999389648438,24.010000228881836 35.22200012207031,13.706000328063965 39.6609992980957,3.686000108718872 C42.058998107910156,-1.7269999980926514 43.888999938964844,-7.624000072479248 44.01599884033203,-13.583000183105469 C44.1150016784668,-18.22100067138672 43.11899948120117,-24.746000289916992 39.06800079345703,-27.65399932861328 C31.482999801635742,-32.41699981689453 2.628999948501587,-31.945999145507812 -8.682999610900879,-30.86400032043457z"></path></g><g opacity="1" transform="matrix(1,0,0,1,185.17999267578125,213.2239990234375)"><path fill="rgb(218,255,232)" fill-opacity="1" d=" M8.682999610900879,-30.86400032043457 C21.21500015258789,-29.665000915527344 34.36000061035156,-25.33799934387207 42.36800003051758,-15.074999809265137 C44.459999084472656,-12.395000457763672 44.14500045776367,-8.196999549865723 43.683998107910156,-5.034999847412109 C41.22800064086914,11.815999984741211 27.916000366210938,24.910999298095703 11.918999671936035,29.636999130249023 C6.565000057220459,31.2189998626709 0.9290000200271606,31.874000549316406 -4.642000198364258,31.457000732421875 C-9.095999717712402,31.124000549316406 -13.496000289916992,30.097000122070312 -17.617000579833984,28.368999481201172 C-28.014999389648438,24.010000228881836 -35.22200012207031,13.706000328063965 -39.6609992980957,3.686000108718872 C-42.058998107910156,-1.7269999980926514 -43.888999938964844,-7.624000072479248 -44.01599884033203,-13.583000183105469 C-44.1150016784668,-18.22100067138672 -43.11899948120117,-24.746000289916992 -39.06800079345703,-27.65399932861328 C-31.482999801635742,-32.41699981689453 -2.628999948501587,-31.945999145507812 8.682999610900879,-30.86400032043457z"></path></g></g></g><linearGradient id="__lottie_element_16" spreadMethod="pad" gradientUnits="userSpaceOnUse" x1="1" y1="-167" x2="1" y2="91"><stop offset="0%" stop-color="rgb(165,165,165)"></stop><stop offset="50%" stop-color="rgb(83,83,83)"></stop><stop offset="100%" stop-color="rgb(0,0,0)"></stop></linearGradient><mask id="__lottie_element_8_1" mask-type="alpha"><use xlink:href="#__lottie_element_8"></use></mask><g id="__lottie_element_17"><g transform="matrix(1,0,0,1,315.82000732421875,236.2239990234375)" opacity="1" style="display: block;"><path fill="rgb(55,55,55)" fill-opacity="1" d=" M-8.682999610900879,-30.86400032043457 C-21.21500015258789,-29.665000915527344 -34.36000061035156,-25.33799934387207 -42.36800003051758,-15.074999809265137 C-44.459999084472656,-12.395000457763672 -44.14500045776367,-8.196999549865723 -43.683998107910156,-5.034999847412109 C-41.22800064086914,11.815999984741211 -27.916000366210938,24.910999298095703 -11.918999671936035,29.636999130249023 C-6.565000057220459,31.2189998626709 -0.9290000200271606,31.874000549316406 4.642000198364258,31.457000732421875 C9.095999717712402,31.124000549316406 13.496000289916992,30.097000122070312 17.617000579833984,28.368999481201172 C28.014999389648438,24.010000228881836 35.22200012207031,13.706000328063965 39.6609992980957,3.686000108718872 C42.058998107910156,-1.7269999980926514 43.888999938964844,-7.624000072479248 44.01599884033203,-13.583000183105469 C44.1150016784668,-18.22100067138672 43.11899948120117,-24.746000289916992 39.06800079345703,-27.65399932861328 C31.482999801635742,-32.41699981689453 2.628999948501587,-31.945999145507812 -8.682999610900879,-30.86400032043457z"></path><g opacity="1" transform="matrix(1,0,0,1,0,0)"></g></g></g><g id="__lottie_element_24"><g transform="matrix(1,0,0,1,196.17999267578125,236.2239990234375)" opacity="1" style="display: block;"><path fill="rgb(55,55,55)" fill-opacity="1" d=" M8.682999610900879,-30.86400032043457 C21.21500015258789,-29.665000915527344 34.36000061035156,-25.33799934387207 42.36800003051758,-15.074999809265137 C44.459999084472656,-12.395000457763672 44.14500045776367,-8.196999549865723 43.683998107910156,-5.034999847412109 C41.22800064086914,11.815999984741211 27.916000366210938,24.910999298095703 11.918999671936035,29.636999130249023 C6.565000057220459,31.2189998626709 0.9290000200271606,31.874000549316406 -4.642000198364258,31.457000732421875 C-9.095999717712402,31.124000549316406 -13.496000289916992,30.097000122070312 -17.617000579833984,28.368999481201172 C-28.014999389648438,24.010000228881836 -35.22200012207031,13.706000328063965 -39.6609992980957,3.686000108718872 C-42.058998107910156,-1.7269999980926514 -43.888999938964844,-7.624000072479248 -44.01599884033203,-13.583000183105469 C-44.1150016784668,-18.22100067138672 -43.11899948120117,-24.746000289916992 -39.06800079345703,-27.65399932861328 C-31.482999801635742,-32.41699981689453 -2.628999948501587,-31.945999145507812 8.682999610900879,-30.86400032043457z"></path><g opacity="1" transform="matrix(1,0,0,1,0,0)"></g></g></g><filter id="__lottie_element_29" filterUnits="objectBoundingBox" x="0%" y="0%" width="100%" height="100%"><feComponentTransfer in="SourceGraphic"><feFuncA type="table" tableValues="1.0 0.0"></feFuncA></feComponentTransfer></filter><mask id="__lottie_element_17_2" mask-type="alpha"><g filter="url(#__lottie_element_29)"><rect width="512" height="512" x="0" y="0" fill="#ffffff" opacity="0"></rect><use xlink:href="#__lottie_element_17"></use></g></mask><filter id="__lottie_element_33" filterUnits="objectBoundingBox" x="0%" y="0%" width="100%" height="100%"><feComponentTransfer in="SourceGraphic"><feFuncA type="table" tableValues="1.0 0.0"></feFuncA></feComponentTransfer></filter><mask id="__lottie_element_24_2" mask-type="alpha"><g filter="url(#__lottie_element_33)"><rect width="512" height="512" x="0" y="0" fill="#ffffff" opacity="0"></rect><use xlink:href="#__lottie_element_24"></use></g></mask><clipPath id="__lottie_element_35"><path d="M0,0 L512,0 L512,512 L0,512z"></path></clipPath><clipPath id="__lottie_element_44"><path d="M0,0 L512,0 L512,512 L0,512z"></path></clipPath><clipPath id="__lottie_element_63"><path d="M0,0 L512,0 L512,512 L0,512z"></path></clipPath><clipPath id="__lottie_element_82"><path d="M0,0 L512,0 L512,512 L0,512z"></path></clipPath></defs><g clip-path="url(#__lottie_element_2)"><g transform="matrix(1.0593000650405884,0,0,1.0593000650405884,259.9599914550781,263.9200134277344)" opacity="0.15" style="display: block;"><g opacity="1" transform="matrix(1,0,0,1,0,0)"><path fill="rgb(0,0,0)" fill-opacity="1" d=" M145,0 C145,80.08100128173828 80.08100128173828,145 0,145 C-80.08100128173828,145 -145,80.08100128173828 -145,0 C-145,-80.08100128173828 -80.08100128173828,-145 0,-145 C80.08100128173828,-145 145,-80.08100128173828 145,0z"></path></g></g><g transform="matrix(0.9900000095367432,0,0,0.9900000095367432,256,256)" opacity="1" style="display: block;"><path stroke-linecap="butt" stroke-linejoin="miter" fill-opacity="0" stroke-miterlimit="4" stroke="rgb(246,126,65)" stroke-opacity="1" stroke-width="15" d=" M145,0 C145,80.08100128173828 80.08100128173828,145 0,145 C-80.08100128173828,145 -145,80.08100128173828 -145,0 C-145,-80.08100128173828 -80.08100128173828,-145 0,-145 C80.08100128173828,-145 145,-80.08100128173828 145,0z"></path><g opacity="1" transform="matrix(1,0,0,1,0,0)"><path fill="rgb(254,208,64)" fill-opacity="1" d=" M145,0 C145,80.08100128173828 80.08100128173828,145 0,145 C-80.08100128173828,145 -145,80.08100128173828 -145,0 C-145,-80.08100128173828 -80.08100128173828,-145 0,-145 C80.08100128173828,-145 145,-80.08100128173828 145,0z"></path></g></g><g transform="matrix(1.0600028038024902,0,0,1.0600028038024902,256,256)" opacity="1" style="display: block;"><g opacity="1" transform="matrix(1,0,0,1,0,0)"><path stroke-linecap="butt" stroke-linejoin="miter" fill-opacity="0" stroke-miterlimit="10" stroke="rgb(255,177,57)" stroke-opacity="1" stroke-width="7.623" d=" M131.5,0 C131.5,72.625 72.625,131.5 0,131.5 C-72.625,131.5 -131.5,72.625 -131.5,0 C-131.5,-72.625 -72.625,-131.5 0,-131.5 C72.625,-131.5 131.5,-72.625 131.5,0z"></path></g></g><g transform="matrix(1.1187989711761475,0,0,1.1187989711761475,256,195.20608520507812)" opacity="1" style="display: block;"><g opacity="1" transform="matrix(1,0,0,1,0,0)"><path fill="rgb(255,224,130)" fill-opacity="1" d=" M106,29.79400062561035 C106,98.0009994506836 58.54199981689453,50.79399871826172 0,50.79399871826172 C-58.54199981689453,50.79399871826172 -106,98.0009994506836 -106,29.79400062561035 C-106,-15.206000328063965 -58.54199981689453,-66.70600128173828 0,-66.70600128173828 C58.54199981689453,-66.70600128173828 106,-18.20599937438965 106,29.79400062561035z"></path></g></g><g transform="matrix(1.0999988317489624,0,0,1.0999988317489624,-20.33097267150879,-22.343088150024414)" opacity="1" style="display: block;"><g opacity="1" transform="matrix(1,0,0,1,228.86399841308594,131.82899475097656)"><path stroke-linecap="round" stroke-linejoin="round" fill-opacity="0" stroke="rgb(255,255,255)" stroke-opacity="1" stroke-width="5" d=" M5.184999942779541,-0.8629999756813049 C1.7000000476837158,-0.48100000619888306 -1.7640000581741333,0.09700000286102295 -5.184999942779541,0.8629999756813049"></path></g><g opacity="1" transform="matrix(1,0,0,1,214.24400329589844,135.33900451660156)"><path stroke-linecap="round" stroke-linejoin="round" fill-opacity="0" stroke="rgb(255,255,255)" stroke-opacity="1" stroke-width="5" d=" M1.6690000295639038,-0.5590000152587891 C0.550000011920929,-0.2070000022649765 -0.5640000104904175,0.16599999368190765 -1.6690000295639038,0.5590000152587891"></path></g></g><g clip-path="url(#__lottie_element_82)" transform="matrix(0.9999990463256836,0,0,0.9999990463256836,0.00025222220574505627,-1.9995520114898682)" opacity="1" style="display: block;"><g transform="matrix(1.0199999809265137,0,0,1.0199999809265137,256,307.66400146484375)" opacity="1" style="display: block;"><g opacity="1" transform="matrix(1,0,0,1,0,0)"><path fill="rgb(247,181,65)" fill-opacity="1" d=" M65.13899993896484,-17.29199981689453 C66.87799835205078,-18.589000701904297 69.0469970703125,-16.393999099731445 67.73100280761719,-14.668999671936035 C52.801998138427734,4.894999980926514 28.0310001373291,17.68400001525879 0,17.68400001525879 C-28.0310001373291,17.68400001525879 -52.801998138427734,4.894999980926514 -67.73100280761719,-14.668999671936035 C-69.0469970703125,-16.393999099731445 -66.87799835205078,-18.589000701904297 -65.13899993896484,-17.29199981689453 C-48.11000061035156,-4.593999862670898 -25.19499969482422,3.184000015258789 0,3.184000015258789 C25.19499969482422,3.184000015258789 48.11000061035156,-4.593999862670898 65.13899993896484,-17.29199981689453z"></path></g></g><g transform="matrix(1,0,0,1,203.6739959716797,211.55999755859375)" opacity="1" style="display: block;"><g opacity="1" transform="matrix(1,0,0,1,0,0)"><path fill="rgb(247,181,65)" fill-opacity="1" d=" M24.332000732421875,-7.671999931335449 C27.384000778198242,-6.084000110626221 25.749000549316406,-1.434000015258789 22.367000579833984,-2.063999891281128 C15.732000350952148,-3.2990000247955322 8.088000297546387,-3.0369999408721924 0.29899999499320984,-0.9800000190734863 C-8.194999694824219,1.2699999809265137 -15.491000175476074,5.290999889373779 -20.79599952697754,10.1899995803833 C-23.295000076293945,12.498000144958496 -27.200000762939453,9.61400032043457 -25.549999237060547,6.639999866485596 C-21.63599967956543,-0.4169999957084656 -13.16100025177002,-6.646999835968018 -2.390000104904175,-9.491000175476074 C7.683000087738037,-12.14900016784668 17.472999572753906,-11.239999771118164 24.332000732421875,-7.671999931335449z"></path></g></g><g transform="matrix(1,0,0,1,308.32598876953125,211.55999755859375)" opacity="1" style="display: block;"><g opacity="1" transform="matrix(1,0,0,1,0,0)"><path fill="rgb(247,181,65)" fill-opacity="1" d=" M-24.332000732421875,-7.671999931335449 C-27.384000778198242,-6.084000110626221 -25.749000549316406,-1.434000015258789 -22.367000579833984,-2.063999891281128 C-15.732000350952148,-3.2990000247955322 -8.088000297546387,-3.0369999408721924 -0.29899999499320984,-0.9800000190734863 C8.194999694824219,1.2699999809265137 15.491000175476074,5.290999889373779 20.79599952697754,10.1899995803833 C23.295000076293945,12.498000144958496 27.200000762939453,9.61400032043457 25.549999237060547,6.639999866485596 C21.63599967956543,-0.4169999957084656 13.16100025177002,-6.646999835968018 2.390000104904175,-9.491000175476074 C-7.683000087738037,-12.14900016784668 -17.472999572753906,-11.239999771118164 -24.332000732421875,-7.671999931335449z"></path></g></g><g transform="matrix(1,0,0,1,216.91299438476562,247.1739959716797)" opacity="1" style="display: block;"><g opacity="1" transform="matrix(1,0,0,1,0,0)"><path fill="rgb(247,181,65)" fill-opacity="1" d=" M12.609000205993652,0 C12.609000205993652,11.142000198364258 6.964000225067139,20.173999786376953 0,20.173999786376953 C-6.964000225067139,20.173999786376953 -12.609000205993652,11.142000198364258 -12.609000205993652,0 C-12.609000205993652,-11.142000198364258 -6.964000225067139,-20.173999786376953 0,-20.173999786376953 C6.964000225067139,-20.173999786376953 12.609000205993652,-11.142000198364258 12.609000205993652,0z"></path></g></g><g transform="matrix(1,0,0,1,296.3479919433594,247.1739959716797)" opacity="1" style="display: block;"><g opacity="1" transform="matrix(1,0,0,1,0,0)"><path fill="rgb(247,181,65)" fill-opacity="1" d=" M12.609000205993652,0 C12.609000205993652,11.142000198364258 6.964000225067139,20.173999786376953 0,20.173999786376953 C-6.964000225067139,20.173999786376953 -12.609000205993652,11.142000198364258 -12.609000205993652,0 C-12.609000205993652,-11.142000198364258 -6.964000225067139,-20.173999786376953 0,-20.173999786376953 C6.964000225067139,-20.173999786376953 12.609000205993652,-11.142000198364258 12.609000205993652,0z"></path></g></g></g><g clip-path="url(#__lottie_element_63)" transform="matrix(0.9999990463256836,0,0,0.9999990463256836,0.9902522563934326,1.010041356086731)" opacity="1" style="display: block;"><g transform="matrix(1.0199999809265137,0,0,1.0199999809265137,256,307.66400146484375)" opacity="1" style="display: block;"><g opacity="1" transform="matrix(1,0,0,1,0,0)"><path fill="rgb(255,228,149)" fill-opacity="1" d=" M65.13899993896484,-17.29199981689453 C66.87799835205078,-18.589000701904297 69.0469970703125,-16.393999099731445 67.73100280761719,-14.668999671936035 C52.801998138427734,4.894999980926514 28.0310001373291,17.68400001525879 0,17.68400001525879 C-28.0310001373291,17.68400001525879 -52.801998138427734,4.894999980926514 -67.73100280761719,-14.668999671936035 C-69.0469970703125,-16.393999099731445 -66.87799835205078,-18.589000701904297 -65.13899993896484,-17.29199981689453 C-48.11000061035156,-4.593999862670898 -25.19499969482422,3.184000015258789 0,3.184000015258789 C25.19499969482422,3.184000015258789 48.11000061035156,-4.593999862670898 65.13899993896484,-17.29199981689453z"></path></g></g><g transform="matrix(1,0,0,1,203.6739959716797,211.55999755859375)" opacity="1" style="display: block;"><g opacity="1" transform="matrix(1,0,0,1,0,0)"><path fill="rgb(255,228,149)" fill-opacity="1" d=" M24.332000732421875,-7.671999931335449 C27.384000778198242,-6.084000110626221 25.749000549316406,-1.434000015258789 22.367000579833984,-2.063999891281128 C15.732000350952148,-3.2990000247955322 8.088000297546387,-3.0369999408721924 0.29899999499320984,-0.9800000190734863 C-8.194999694824219,1.2699999809265137 -15.491000175476074,5.290999889373779 -20.79599952697754,10.1899995803833 C-23.295000076293945,12.498000144958496 -27.200000762939453,9.61400032043457 -25.549999237060547,6.639999866485596 C-21.63599967956543,-0.4169999957084656 -13.16100025177002,-6.646999835968018 -2.390000104904175,-9.491000175476074 C7.683000087738037,-12.14900016784668 17.472999572753906,-11.239999771118164 24.332000732421875,-7.671999931335449z"></path></g></g><g transform="matrix(1,0,0,1,308.32598876953125,211.55999755859375)" opacity="1" style="display: block;"><g opacity="1" transform="matrix(1,0,0,1,0,0)"><path fill="rgb(255,228,149)" fill-opacity="1" d=" M-24.332000732421875,-7.671999931335449 C-27.384000778198242,-6.084000110626221 -25.749000549316406,-1.434000015258789 -22.367000579833984,-2.063999891281128 C-15.732000350952148,-3.2990000247955322 -8.088000297546387,-3.0369999408721924 -0.29899999499320984,-0.9800000190734863 C8.194999694824219,1.2699999809265137 15.491000175476074,5.290999889373779 20.79599952697754,10.1899995803833 C23.295000076293945,12.498000144958496 27.200000762939453,9.61400032043457 25.549999237060547,6.639999866485596 C21.63599967956543,-0.4169999957084656 13.16100025177002,-6.646999835968018 2.390000104904175,-9.491000175476074 C-7.683000087738037,-12.14900016784668 -17.472999572753906,-11.239999771118164 -24.332000732421875,-7.671999931335449z"></path></g></g><g transform="matrix(1,0,0,1,216.91299438476562,247.1739959716797)" opacity="1" style="display: block;"><g opacity="1" transform="matrix(1,0,0,1,0,0)"><path fill="rgb(255,228,149)" fill-opacity="1" d=" M12.609000205993652,0 C12.609000205993652,11.142000198364258 6.964000225067139,20.173999786376953 0,20.173999786376953 C-6.964000225067139,20.173999786376953 -12.609000205993652,11.142000198364258 -12.609000205993652,0 C-12.609000205993652,-11.142000198364258 -6.964000225067139,-20.173999786376953 0,-20.173999786376953 C6.964000225067139,-20.173999786376953 12.609000205993652,-11.142000198364258 12.609000205993652,0z"></path></g></g><g transform="matrix(1,0,0,1,296.3479919433594,247.1739959716797)" opacity="1" style="display: block;"><g opacity="1" transform="matrix(1,0,0,1,0,0)"><path fill="rgb(255,228,149)" fill-opacity="1" d=" M12.609000205993652,0 C12.609000205993652,11.142000198364258 6.964000225067139,20.173999786376953 0,20.173999786376953 C-6.964000225067139,20.173999786376953 -12.609000205993652,11.142000198364258 -12.609000205993652,0 C-12.609000205993652,-11.142000198364258 -6.964000225067139,-20.173999786376953 0,-20.173999786376953 C6.964000225067139,-20.173999786376953 12.609000205993652,-11.142000198364258 12.609000205993652,0z"></path></g></g></g><g clip-path="url(#__lottie_element_44)" transform="matrix(0.9900000095367432,0,0,0.9900000095367432,2.559998035430908,2.559998035430908)" opacity="1" style="display: block;"><g transform="matrix(1.0199999809265137,0,0,1.0199999809265137,256,307.66400146484375)" opacity="1" style="display: block;"><g opacity="1" transform="matrix(1,0,0,1,0,0)"><path fill="rgb(136,67,22)" fill-opacity="1" d=" M65.13899993896484,-17.29199981689453 C66.87799835205078,-18.589000701904297 69.0469970703125,-16.393999099731445 67.73100280761719,-14.668999671936035 C52.801998138427734,4.894999980926514 28.0310001373291,17.68400001525879 0,17.68400001525879 C-28.0310001373291,17.68400001525879 -52.801998138427734,4.894999980926514 -67.73100280761719,-14.668999671936035 C-69.0469970703125,-16.393999099731445 -66.87799835205078,-18.589000701904297 -65.13899993896484,-17.29199981689453 C-48.11000061035156,-4.593999862670898 -25.19499969482422,3.184000015258789 0,3.184000015258789 C25.19499969482422,3.184000015258789 48.11000061035156,-4.593999862670898 65.13899993896484,-17.29199981689453z"></path></g></g><g transform="matrix(1,0,0,1,203.6739959716797,211.55999755859375)" opacity="1" style="display: block;"><g opacity="1" transform="matrix(1,0,0,1,0,0)"><path fill="rgb(136,67,22)" fill-opacity="1" d=" M24.332000732421875,-7.671999931335449 C27.384000778198242,-6.084000110626221 25.749000549316406,-1.434000015258789 22.367000579833984,-2.063999891281128 C15.732000350952148,-3.2990000247955322 8.088000297546387,-3.0369999408721924 0.29899999499320984,-0.9800000190734863 C-8.194999694824219,1.2699999809265137 -15.491000175476074,5.290999889373779 -20.79599952697754,10.1899995803833 C-23.295000076293945,12.498000144958496 -27.200000762939453,9.61400032043457 -25.549999237060547,6.639999866485596 C-21.63599967956543,-0.4169999957084656 -13.16100025177002,-6.646999835968018 -2.390000104904175,-9.491000175476074 C7.683000087738037,-12.14900016784668 17.472999572753906,-11.239999771118164 24.332000732421875,-7.671999931335449z"></path></g></g><g transform="matrix(1,0,0,1,308.32598876953125,211.55999755859375)" opacity="1" style="display: block;"><g opacity="1" transform="matrix(1,0,0,1,0,0)"><path fill="rgb(136,67,22)" fill-opacity="1" d=" M-24.332000732421875,-7.671999931335449 C-27.384000778198242,-6.084000110626221 -25.749000549316406,-1.434000015258789 -22.367000579833984,-2.063999891281128 C-15.732000350952148,-3.2990000247955322 -8.088000297546387,-3.0369999408721924 -0.29899999499320984,-0.9800000190734863 C8.194999694824219,1.2699999809265137 15.491000175476074,5.290999889373779 20.79599952697754,10.1899995803833 C23.295000076293945,12.498000144958496 27.200000762939453,9.61400032043457 25.549999237060547,6.639999866485596 C21.63599967956543,-0.4169999957084656 13.16100025177002,-6.646999835968018 2.390000104904175,-9.491000175476074 C-7.683000087738037,-12.14900016784668 -17.472999572753906,-11.239999771118164 -24.332000732421875,-7.671999931335449z"></path></g></g><g transform="matrix(1,0,0,1,216.91299438476562,247.1739959716797)" opacity="1" style="display: block;"><g opacity="1" transform="matrix(1,0,0,1,0,0)"><path fill="rgb(136,67,22)" fill-opacity="1" d=" M12.609000205993652,0 C12.609000205993652,11.142000198364258 6.964000225067139,20.173999786376953 0,20.173999786376953 C-6.964000225067139,20.173999786376953 -12.609000205993652,11.142000198364258 -12.609000205993652,0 C-12.609000205993652,-11.142000198364258 -6.964000225067139,-20.173999786376953 0,-20.173999786376953 C6.964000225067139,-20.173999786376953 12.609000205993652,-11.142000198364258 12.609000205993652,0z"></path></g></g><g transform="matrix(1,0,0,1,296.3479919433594,247.1739959716797)" opacity="1" style="display: block;"><g opacity="1" transform="matrix(1,0,0,1,0,0)"><path fill="rgb(132,62,20)" fill-opacity="1" d=" M12.609000205993652,0 C12.609000205993652,11.142000198364258 6.964000225067139,20.173999786376953 0,20.173999786376953 C-6.964000225067139,20.173999786376953 -12.609000205993652,11.142000198364258 -12.609000205993652,0 C-12.609000205993652,-11.142000198364258 -6.964000225067139,-20.173999786376953 0,-20.173999786376953 C6.964000225067139,-20.173999786376953 12.609000205993652,-11.142000198364258 12.609000205993652,0z"></path></g></g></g><g clip-path="url(#__lottie_element_35)" transform="matrix(0.9999990463256836,0,0,0.9999990463256836,0.00025222220574505627,4.950252056121826)" opacity="0.61" style="mix-blend-mode: overlay; display: block;"><g transform="matrix(1,0,0,1,256,236.04299926757812)" opacity="1" style="display: block;"><g opacity="1" transform="matrix(1,0,0,1,0,0)"><path fill="rgb(0,0,0)" fill-opacity="1" d=" M123.1520004272461,-30.788999557495117 C123.1520004272461,-22.893999099731445 115.94100189208984,-20.520000457763672 115.94100189208984,-20.520000457763672 C115.94100189208984,-20.520000457763672 114.08799743652344,2.0759999752044678 104.11199951171875,17.714000701904297 C98.77999877929688,26.066999435424805 92.43299865722656,33.32600021362305 83.03900146484375,36.689998626708984 C77.62000274658203,38.63199996948242 71.86900329589844,39.36899948120117 66.15699768066406,39.68600082397461 C57.81700134277344,40.15700149536133 49.3129997253418,39.724998474121094 41.391998291015625,36.99700164794922 C33.939998626708984,34.43199920654297 27.22599983215332,29.834999084472656 21.80500030517578,24.010000228881836 C16.055999755859375,17.82900047302246 11.762999534606934,10.211000442504883 8.869999885559082,2.2139999866485596 C8.628999710083008,1.5299999713897705 5.4039998054504395,-10.656999588012695 5.59499979019165,-10.656999588012695 C5.59499979019165,-10.656999588012695 -5.59499979019165,-10.656999588012695 -5.59499979019165,-10.656999588012695 C-5.4039998054504395,-10.656999588012695 -8.628999710083008,1.5299999713897705 -8.869999885559082,2.2139999866485596 C-11.762999534606934,10.211000442504883 -16.055999755859375,17.82900047302246 -21.80500030517578,24.010000228881836 C-27.22599983215332,29.834999084472656 -33.939998626708984,34.43199920654297 -41.391998291015625,36.99700164794922 C-49.3129997253418,39.724998474121094 -57.81700134277344,40.15700149536133 -66.15699768066406,39.68600082397461 C-71.86900329589844,39.36899948120117 -77.62000274658203,38.63199996948242 -83.03900146484375,36.689998626708984 C-92.43299865722656,33.32600021362305 -98.77999877929688,26.066999435424805 -104.11199951171875,17.714000701904297 C-114.08799743652344,2.0759999752044678 -115.94100189208984,-20.520000457763672 -115.94100189208984,-20.520000457763672 C-115.94100189208984,-20.520000457763672 -123.1520004272461,-22.893999099731445 -123.1520004272461,-30.788999557495117 C-123.1520004272461,-38.696998596191406 -118.39099884033203,-38.8489990234375 -118.39099884033203,-38.8489990234375 C-107.90699768066406,-39.483001708984375 -97.2699966430664,-39.28099822998047 -86.78399658203125,-39.6609992980957 C-77.51799774169922,-40.00400161743164 -68.23999786376953,-39.8650016784668 -58.97200012207031,-39.369998931884766 C-46.0880012512207,-38.696998596191406 -40.97200012207031,-38.27799987792969 -27.618999481201172,-34.11399841308594 C-25.499000549316406,-33.441001892089844 -15.331999778747559,-28.89699935913086 -13.185999870300293,-27.159000396728516 C-13.185999870300293,-27.159000396728516 -0.5929999947547913,-27.159000396728516 -0.5929999947547913,-27.159000396728516 C-0.5929999947547913,-27.159000396728516 -0.5559999942779541,-27.159000396728516 -0.49300000071525574,-27.159000396728516 C-0.49300000071525574,-27.159000396728516 0.49300000071525574,-27.159000396728516 0.49300000071525574,-27.159000396728516 C0.5559999942779541,-27.159000396728516 0.5929999947547913,-27.159000396728516 0.5929999947547913,-27.159000396728516 C0.5929999947547913,-27.159000396728516 13.185999870300293,-27.159000396728516 13.185999870300293,-27.159000396728516 C15.331999778747559,-28.89699935913086 25.499000549316406,-33.441001892089844 27.618999481201172,-34.11399841308594 C40.97200012207031,-38.27799987792969 46.0880012512207,-38.696998596191406 58.97200012207031,-39.369998931884766 C68.23999786376953,-39.8650016784668 77.51799774169922,-40.00400161743164 86.78399658203125,-39.6609992980957 C97.2699966430664,-39.28099822998047 107.90699768066406,-39.483001708984375 118.39099884033203,-38.8489990234375 C118.39099884033203,-38.8489990234375 123.1520004272461,-38.696998596191406 123.1520004272461,-30.788999557495117z"></path></g></g></g><g clip-path="url(#__lottie_element_5)" transform="matrix(0.9900000095367432,0,0,0.9900000095367432,2.559998035430908,2.559998035430908)" opacity="1" style="display: block;"><g transform="matrix(1,0,0,1,256,236.04299926757812)" opacity="1" style="display: block;"><g opacity="1" transform="matrix(1,0,0,1,0,0)"><path fill="rgb(0,0,0)" fill-opacity="1" d=" M123.1520004272461,-30.788999557495117 C123.1520004272461,-22.893999099731445 115.94100189208984,-20.520000457763672 115.94100189208984,-20.520000457763672 C115.94100189208984,-20.520000457763672 114.08799743652344,2.0759999752044678 104.11199951171875,17.714000701904297 C98.77999877929688,26.066999435424805 92.43299865722656,33.32600021362305 83.03900146484375,36.689998626708984 C77.62000274658203,38.63199996948242 71.86900329589844,39.36899948120117 66.15699768066406,39.68600082397461 C57.81700134277344,40.15700149536133 49.3129997253418,39.724998474121094 41.391998291015625,36.99700164794922 C33.939998626708984,34.43199920654297 27.22599983215332,29.834999084472656 21.80500030517578,24.010000228881836 C16.055999755859375,17.82900047302246 11.762999534606934,10.211000442504883 8.869999885559082,2.2139999866485596 C8.628999710083008,1.5299999713897705 5.4039998054504395,-10.656999588012695 5.59499979019165,-10.656999588012695 C5.59499979019165,-10.656999588012695 -5.59499979019165,-10.656999588012695 -5.59499979019165,-10.656999588012695 C-5.4039998054504395,-10.656999588012695 -8.628999710083008,1.5299999713897705 -8.869999885559082,2.2139999866485596 C-11.762999534606934,10.211000442504883 -16.055999755859375,17.82900047302246 -21.80500030517578,24.010000228881836 C-27.22599983215332,29.834999084472656 -33.939998626708984,34.43199920654297 -41.391998291015625,36.99700164794922 C-49.3129997253418,39.724998474121094 -57.81700134277344,40.15700149536133 -66.15699768066406,39.68600082397461 C-71.86900329589844,39.36899948120117 -77.62000274658203,38.63199996948242 -83.03900146484375,36.689998626708984 C-92.43299865722656,33.32600021362305 -98.77999877929688,26.066999435424805 -104.11199951171875,17.714000701904297 C-114.08799743652344,2.0759999752044678 -115.94100189208984,-20.520000457763672 -115.94100189208984,-20.520000457763672 C-115.94100189208984,-20.520000457763672 -123.1520004272461,-22.893999099731445 -123.1520004272461,-30.788999557495117 C-123.1520004272461,-38.696998596191406 -118.39099884033203,-38.8489990234375 -118.39099884033203,-38.8489990234375 C-107.90699768066406,-39.483001708984375 -97.2699966430664,-39.28099822998047 -86.78399658203125,-39.6609992980957 C-77.51799774169922,-40.00400161743164 -68.23999786376953,-39.8650016784668 -58.97200012207031,-39.369998931884766 C-46.0880012512207,-38.696998596191406 -40.97200012207031,-38.27799987792969 -27.618999481201172,-34.11399841308594 C-25.499000549316406,-33.441001892089844 -15.331999778747559,-28.89699935913086 -13.185999870300293,-27.159000396728516 C-13.185999870300293,-27.159000396728516 -0.5929999947547913,-27.159000396728516 -0.5929999947547913,-27.159000396728516 C-0.5929999947547913,-27.159000396728516 -0.5559999942779541,-27.159000396728516 -0.49300000071525574,-27.159000396728516 C-0.49300000071525574,-27.159000396728516 0.49300000071525574,-27.159000396728516 0.49300000071525574,-27.159000396728516 C0.5559999942779541,-27.159000396728516 0.5929999947547913,-27.159000396728516 0.5929999947547913,-27.159000396728516 C0.5929999947547913,-27.159000396728516 13.185999870300293,-27.159000396728516 13.185999870300293,-27.159000396728516 C15.331999778747559,-28.89699935913086 25.499000549316406,-33.441001892089844 27.618999481201172,-34.11399841308594 C40.97200012207031,-38.27799987792969 46.0880012512207,-38.696998596191406 58.97200012207031,-39.369998931884766 C68.23999786376953,-39.8650016784668 77.51799774169922,-40.00400161743164 86.78399658203125,-39.6609992980957 C97.2699966430664,-39.28099822998047 107.90699768066406,-39.483001708984375 118.39099884033203,-38.8489990234375 C118.39099884033203,-38.8489990234375 123.1520004272461,-38.696998596191406 123.1520004272461,-30.788999557495117z"></path></g></g><g mask="url(#__lottie_element_24_2)" style="display: block;"><g transform="matrix(1,0,0,1,196.17999267578125,236.2239990234375)" opacity="0.5"><path fill="rgb(160,160,160)" fill-opacity="1" d=" M8.682999610900879,-30.86400032043457 C21.21500015258789,-29.665000915527344 34.36000061035156,-25.33799934387207 42.36800003051758,-15.074999809265137 C44.459999084472656,-12.395000457763672 44.14500045776367,-8.196999549865723 43.683998107910156,-5.034999847412109 C41.22800064086914,11.815999984741211 27.916000366210938,24.910999298095703 11.918999671936035,29.636999130249023 C6.565000057220459,31.2189998626709 0.9290000200271606,31.874000549316406 -4.642000198364258,31.457000732421875 C-9.095999717712402,31.124000549316406 -13.496000289916992,30.097000122070312 -17.617000579833984,28.368999481201172 C-28.014999389648438,24.010000228881836 -35.22200012207031,13.706000328063965 -39.6609992980957,3.686000108718872 C-42.058998107910156,-1.7269999980926514 -43.888999938964844,-7.624000072479248 -44.01599884033203,-13.583000183105469 C-44.1150016784668,-18.22100067138672 -43.11899948120117,-24.746000289916992 -39.06800079345703,-27.65399932861328 C-31.482999801635742,-32.41699981689453 -2.628999948501587,-31.945999145507812 8.682999610900879,-30.86400032043457z"></path><g opacity="1" transform="matrix(1,0,0,1,0,0)"></g></g></g><g mask="url(#__lottie_element_17_2)" style="display: block;"><g transform="matrix(1,0,0,1,315.82000732421875,236.2239990234375)" opacity="0.5"><path fill="rgb(160,160,160)" fill-opacity="1" d=" M-8.682999610900879,-30.86400032043457 C-21.21500015258789,-29.665000915527344 -34.36000061035156,-25.33799934387207 -42.36800003051758,-15.074999809265137 C-44.459999084472656,-12.395000457763672 -44.14500045776367,-8.196999549865723 -43.683998107910156,-5.034999847412109 C-41.22800064086914,11.815999984741211 -27.916000366210938,24.910999298095703 -11.918999671936035,29.636999130249023 C-6.565000057220459,31.2189998626709 -0.9290000200271606,31.874000549316406 4.642000198364258,31.457000732421875 C9.095999717712402,31.124000549316406 13.496000289916992,30.097000122070312 17.617000579833984,28.368999481201172 C28.014999389648438,24.010000228881836 35.22200012207031,13.706000328063965 39.6609992980957,3.686000108718872 C42.058998107910156,-1.7269999980926514 43.888999938964844,-7.624000072479248 44.01599884033203,-13.583000183105469 C44.1150016784668,-18.22100067138672 43.11899948120117,-24.746000289916992 39.06800079345703,-27.65399932861328 C31.482999801635742,-32.41699981689453 2.628999948501587,-31.945999145507812 -8.682999610900879,-30.86400032043457z"></path><g opacity="1" transform="matrix(1,0,0,1,0,0)"></g></g></g><g mask="url(#__lottie_element_8_1)" style="display: block;"><g transform="matrix(1,0,0,1,255.5,259)" opacity="1"><g opacity="1" transform="matrix(1,0,0,1,0,0)"><path fill="url(#__lottie_element_16)" fill-opacity="1" d=" M224.5,127 C224.5,127 -224.5,127 -224.5,127 C-224.5,127 -224.5,-127 -224.5,-127 C-224.5,-127 224.5,-127 224.5,-127 C224.5,-127 224.5,127 224.5,127z"></path></g></g></g></g></g></svg>