<svg xmlns="http://www.w3.org/2000/svg" viewBox="0 0 60 28" fill="none" class="sc-948a8d1f-2 chiNuG"><path d="M1.934 20.082c2.11.345 4.214.685 6.332.97" stroke="#FF73D4" stroke-width="3" stroke-linecap="round"></path><path d="M5.31 17.307c-.063 1.943.047 3.927-.213 5.858-.049.357-.025.843-.267 1.118" stroke="#FF73D4" stroke-width="3" stroke-linecap="round"></path><path d="M10.703 15.842c.495 2.749 1.21 5.562 1.502 8.347.014.138-.053.32.057.431.016.016 1.045-1.6 1.084-1.662.706-1.11 1.4-2.198 1.958-3.39.386-.827.752-1.708 1.147-2.513.151-.308.403-.607.45-.953" stroke="#FF73D4" stroke-width="2" stroke-linecap="round"></path><path d="M13.613 15.658c.822 2.476 2.005 4.86 3.124 7.213.219.46.142.329.23.627.216.744.245.11.458-.45.805-2.118 1.781-4.187 2.62-6.29M22.606 17.45l-4.482 8.398M22.318 17.873c.569 2.29 1.128 4.581 1.708 6.868.084.33.157.72.316 1.036.077.154.118.17.094.346" stroke="#FF73D4" stroke-width="2" stroke-linecap="round"></path><path d="M19.783 22.955c1.433.278 2.849.581 4.262.922M26.783 18.129c-.021 2.194.02 4.39.034 6.584M24.346 16.53c1.759.318 3.524.706 5.297.945" stroke="#FF73D4" stroke-width="2" stroke-linecap="round"></path><path d="M34.627 11.731h5.177c.289 0 .504-.036.695.155M34.473 16.984c1.417-.155 2.92-.116 4.327-.317.599-.086 1.07.008 1.7.008M50.852 8.33c-.118-.312-2.055-6.819-3.09-6.3-.84.419-1.738.99-2.233 1.802-1.817 2.984-.189 6.508.533 9.564.506 2.147 1.629 3.963 2.627 5.907.328.64.733 1.68 1.39 2.009" stroke="#FF73D4" stroke-width="3" stroke-linecap="round"></path><path d="M50.544 8.64c1.544-1.73 3.046-3.67 4.773-5.236.413-.375.478-.244.824.051.656.56 1.331 1.221 1.408 2.13.121 1.426-.457 3.103-.858 4.446-.543 1.814-1.384 3.425-2.37 5.031-.79 1.29-1.46 2.433-2.507 3.503-.729.745-1.275 1.828-1.734 2.747" stroke="#FF73D4" stroke-width="3" stroke-linecap="round"></path></svg>