<svg data-v-0dd9719b="" version="1.0" xmlns="http://www.w3.org/2000/svg" xmlns:xlink="http://www.w3.org/1999/xlink" width="563" height="136" viewBox="0 0 563 136" preserveAspectRatio="xMidYMid meet" color-interpolation-filters="sRGB" style="margin: auto;" transform="rotate(undefined)">  <g data-v-0dd9719b="" fill="#ff51f9" class="icon-text-wrapper icon-svg-group iconsvg" transform="translate(71.70999908447266,99.91490173339844)"><g class="iconsvg-imagesvg" transform="translate(0,1.5512561798095703)" mask="url(#1c5441fa-535b-40a5-8afe-e516d7514360)"><g><rect fill="#ff51f9" fill-opacity="0" stroke-width="2" x="0" y="0" width="60" height="47.06768332862657" class="image-rect"></rect> <svg filter="url(#colors6009601033)" x="0" y="0" width="60" height="47.06768332862657" filtersec="colorsf2867071385" class="image-svg-svg primary" style="overflow: visible;"><svg xmlns="http://www.w3.org/2000/svg" viewBox="0.0003966689109802246 3.0920000076293945 28.684600830078125 22.501998901367188"><path d="M3.136 11.14s.886-1.142.313-2.728c-.575-1.585-1.914-2.187-1.914-2.187S.533 7.586 1.093 9.131c.559 1.546 2.043 2.009 2.043 2.009zM5.595 11.951s1.549-.124 2.436-1.509c.887-1.384.209-2.932.209-2.932s-1.438.292-2.349 1.713c-.91 1.42-.296 2.728-.296 2.728zM5.752 13.781c-.717 1.527.062 2.745.062 2.745s1.521-.326 2.219-1.813c.697-1.489-.177-2.935-.177-2.935s-1.387.476-2.104 2.003zM9.253 15.011s-1.337.606-1.907 2.192c-.57 1.589.319 2.727.319 2.727s1.482-.467 2.038-2.014c.555-1.547-.45-2.905-.45-2.905zM10.367 23.363s1.286-.875 1.373-2.516c.086-1.642-1.269-2.652-1.269-2.652s-1.106.965-1.195 2.649c-.088 1.683 1.091 2.519 1.091 2.519zM5.111 8.084s1.371-.458 1.773-2.095c.403-1.637-.376-2.881-.376-2.881s-1.588.576-1.981 2.173c-.392 1.596.584 2.803.584 2.803zM3.135 14.621s.509-1.353-.506-2.698C1.612 10.577.156 10.396.156 10.396S-.4 11.992.59 13.304c.99 1.313 2.545 1.317 2.545 1.317zM4.271 18.191s.195-1.432-1.093-2.518c-1.29-1.087-2.75-.939-2.75-.939s-.188 1.68 1.068 2.739c1.258 1.058 2.775.718 2.775.718zM6.001 21.143s-.245-1.424-1.803-2.068c-1.559-.646-2.905-.063-2.905-.063s.33 1.658 1.848 2.288c1.518.627 2.86-.157 2.86-.157zM6.757 22.369c-1.624-.454-2.892.285-2.892.285s.525 1.606 2.107 2.049c1.584.443 2.822-.496 2.822-.496s-.413-1.385-2.037-1.838z" fill="#000000"></path><path d="M5.28 9.06l-.722-.355c-.038.079-3.752 7.968 6.684 16.889l.522-.611C1.828 16.488 5.134 9.359 5.28 9.06zM25.549 11.125s-.887-1.142-.313-2.727c.573-1.586 1.913-2.188 1.913-2.188s1.001 1.36.441 2.906c-.557 1.546-2.041 2.009-2.041 2.009zM23.09 11.936s-1.549-.125-2.437-1.509c-.887-1.384-.209-2.932-.209-2.932s1.438.292 2.35 1.712c.91 1.421.296 2.729.296 2.729zM22.933 13.765c.717 1.527-.062 2.745-.062 2.745s-1.521-.326-2.22-1.813c-.696-1.489.177-2.935.177-2.935s1.388.477 2.105 2.003zM19.432 14.996s1.336.605 1.907 2.194c.57 1.588-.32 2.726-.32 2.726s-1.481-.468-2.037-2.015.45-2.905.45-2.905zM18.316 23.347s-1.285-.874-1.372-2.516c-.086-1.642 1.27-2.653 1.27-2.653s1.104.965 1.194 2.65c.089 1.685-1.092 2.519-1.092 2.519zM23.572 8.069s-1.369-.458-1.771-2.095c-.403-1.637.377-2.882.377-2.882s1.588.576 1.98 2.174c.392 1.595-.586 2.803-.586 2.803zM25.55 14.606s-.509-1.353.505-2.698c1.017-1.346 2.474-1.527 2.474-1.527s.557 1.596-.434 2.908c-.991 1.313-2.545 1.317-2.545 1.317zM24.414 18.176s-.196-1.432 1.093-2.52c1.29-1.086 2.75-.938 2.75-.938s.188 1.681-1.069 2.739-2.774.719-2.774.719zM22.683 21.128s.246-1.425 1.804-2.07c1.56-.646 2.905-.063 2.905-.063s-.33 1.658-1.848 2.287c-1.519.63-2.861-.154-2.861-.154zM21.927 22.354c1.624-.453 2.893.285 2.893.285s-.524 1.605-2.107 2.051c-1.583.441-2.821-.498-2.821-.498s.412-1.384 2.035-1.838z" fill="#000000"></path><path d="M23.404 9.045l.724-.355c.038.079 3.752 7.968-6.685 16.888l-.521-.611c9.934-8.493 6.628-15.624 6.482-15.922z" fill="#000000"></path></svg></svg> <defs><filter id="colors6009601033"><feColorMatrix type="matrix" values="0 0 0 0 0.99609375  0 0 0 0 0.31640625  0 0 0 0 0.97265625  0 0 0 1 0" class="icon-fecolormatrix"></feColorMatrix></filter> <filter id="colorsf2867071385"><feColorMatrix type="matrix" values="0 0 0 0 0.99609375  0 0 0 0 0.99609375  0 0 0 0 0.99609375  0 0 0 1 0" class="icon-fecolormatrix"></feColorMatrix></filter> <filter id="colorsb7106279606"><feColorMatrix type="matrix" values="0 0 0 0 0  0 0 0 0 0  0 0 0 0 0  0 0 0 1 0" class="icon-fecolormatrix"></feColorMatrix></filter></defs></g><rect v-gra="id" width="72" height="59.067684173583984" transform="translate(-6, -6)" style="pointer-events:none;" fill="url(#QUJ8LGUBPHWfxmVa5Efh6)"></rect></g> <g transform="translate(67,0)"><g data-gra="path-name" fill-rule="" class="tp-name iconsvg-namesvg" fill="url(#38ab8ff4-1841-4926-bd52-d72af16367e9)"><g transform="scale(1)"><g><path d="M8.58 0.28L0.98-18.99-0.56-19.27-0.56-19.7 2.81-19.7Q4.31-19.7 5.26-19.02 6.22-18.35 6.61-17.31L6.61-17.31 10.86-6.47 13.34-13.73 11.26-18.99 9.71-19.27 9.71-19.7 13.08-19.7Q14.58-19.7 15.5-19.04 16.43-18.37 16.88-17.31L16.88-17.31 21.13-6.47 25.18-18.43 23.07-19.27 23.07-19.7 28.28-19.7 28.28-19.27 26.03-18.43 19.7 0.28 18.85 0.28 13.79-12.58 9.43 0.28 8.58 0.28ZM29.12 0L29.12-0.42 30.81-0.84 30.81-18.85 29.12-19.27 29.12-19.7 44.18-19.7 44.18-14.63 43.33-14.63Q42.8-15.05 42.4-15.7L42.4-15.7Q41.5-17.22 41.5-18.99L41.5-18.99 35.45-18.99 35.45-10.13 38.69-10.13Q38.89-11.2 39.42-12.13L39.42-12.13Q39.65-12.55 39.96-12.94L39.96-12.94 40.8-12.94 40.8-6.61 39.96-6.61Q39.65-7.01 39.42-7.43L39.42-7.43Q38.89-8.36 38.69-9.43L38.69-9.43 35.45-9.43 35.45-0.7 42.07-0.7Q42.07-2.48 42.97-4L42.97-4Q43.36-4.64 43.9-5.06L43.9-5.06 44.74-5.06 44.74 0 29.12 0ZM47.27 0L47.27-0.42 48.96-0.84 48.96-18.85 47.27-19.27 47.27-19.7 54.87-19.7Q59.15-19.7 61.16-18.33 63.17-16.97 63.17-14.77L63.17-14.77Q63.17-13.25 62.3-12.32 61.43-11.4 60.08-10.95L60.08-10.95Q58.64-10.44 56.98-10.41L56.98-10.41 56.98-10.27Q59.03-10.19 60.55-9.65L60.55-9.65Q62.1-9.15 63.13-8.08 64.16-7.01 64.16-5.35L64.16-5.35Q64.16-2.84 62.1-1.42 60.05 0 55.43 0L55.43 0 47.27 0ZM53.6-10.69L54.87-10.69Q55.8-10.69 56.6-11.21 57.4-11.73 57.9-12.68 58.39-13.62 58.39-14.77L58.39-14.77Q58.39-16.01 57.9-16.97 57.4-17.92 56.6-18.46 55.8-18.99 54.87-18.99L54.87-18.99 53.6-18.99 53.6-10.69ZM53.6-0.7L55.43-0.7Q57.18-0.7 58.27-1.94 59.37-3.18 59.37-5.35L59.37-5.35Q59.37-7.51 58.27-8.75 57.18-9.99 55.43-9.99L55.43-9.99 53.6-9.99 53.6-0.7ZM72.32 0L72.32-0.42 74.57-1.27 82.31-19.98 83.15-19.98 91.17-0.84 92.58-0.42 92.58 0 89.2 0Q87.74 0 86.81-0.66 85.88-1.32 85.43-2.39L85.43-2.39 83.99-5.77 77.27-5.77 75.41-1.27 77.52-0.42 77.52 0 72.32 0ZM80.62-13.87L77.55-6.47 83.71-6.47 80.62-13.87ZM93.42 0L93.42-0.42 95.11-0.84 95.11-18.85 93.42-19.27 93.42-19.7 101.3-19.7Q105.97-19.7 108-18.16 110.02-16.63 110.02-13.65L110.02-13.65Q110.02-10.66 108-9.13 105.97-7.6 101.3-7.6L101.3-7.6 99.75-7.6 99.75-0.84 101.44-0.42 101.44 0 93.42 0ZM99.75-8.3L101.3-8.3Q103.07-8.3 104.15-9.65 105.24-11 105.24-13.65L105.24-13.65Q105.24-16.26 104.15-17.63 103.07-18.99 101.3-18.99L101.3-18.99 99.75-18.99 99.75-8.3ZM112.41 0L112.41-0.42 114.1-0.84 114.1-18.85 112.41-19.27 112.41-19.7 120.29-19.7Q124.96-19.7 126.99-18.16 129.02-16.63 129.02-13.65L129.02-13.65Q129.02-10.66 126.99-9.13 124.96-7.6 120.29-7.6L120.29-7.6 118.74-7.6 118.74-0.84 120.43-0.42 120.43 0 112.41 0ZM118.74-8.3L120.29-8.3Q122.06-8.3 123.15-9.65 124.23-11 124.23-13.65L124.23-13.65Q124.23-16.26 123.15-17.63 122.06-18.99 120.29-18.99L120.29-18.99 118.74-18.99 118.74-8.3Z" transform="translate(0.5600000023841858, 19.979999542236328)"></path></g> <!----> <!----> <!----> <!----> <!----> <!----> <g data-gra="path-name-1" fill="url(#a6abc6d9-0e61-464f-b2be-92dbcd3fbbac)" transform="translate(0,23.260000228881836)"><g transform="scale(1.01663)"><path d="M11.79 0.54Q9.03 0.54 6.71-1.02 4.39-2.57 3.01-5.57 1.63-8.56 1.63-12.69L1.63-12.69Q1.63-16.86 3.06-19.85 4.5-22.85 7.09-24.39 9.68-25.93 13.09-25.93L13.09-25.93Q15.16-25.93 17.26-24.73L17.26-24.73Q18.06-24.3 18.86-23.57L18.86-23.57Q19.47-24.51 20.13-25.06L20.13-25.06Q20.78-25.53 20.85-25.56L20.85-25.56 21.76-25.56 21.76-18.68 20.31-18.68Q19.84-20.42 18.89-21.83L18.89-21.83Q18.02-23.21 16.74-24.11 15.45-25.02 13.78-25.02L13.78-25.02Q11.28-25.02 9.63-22.12 7.98-19.22 7.98-12.69L7.98-12.69Q7.98-6.16 9.45-3.44 10.91-0.73 13.24-0.73L13.24-0.73Q14.58-0.73 15.67-2.18L15.67-2.18Q16.06-2.72 16.5-3.63L16.5-3.63 16.5-11.97 14.32-12.51 14.32-13.05 24.66-13.05 24.66-12.51 22.48-11.97 22.48 0.18 21.94 0.18Q19.29 0.18 17.91-1.27L17.91-1.27Q17.3-1.92 17.04-2.72L17.04-2.72Q16.54-1.81 15.85-1.09L15.85-1.09Q14.21 0.54 11.79 0.54L11.79 0.54ZM24.3 0L24.3-0.54 27.2-1.63 37.17-25.75 38.26-25.75 48.59-1.09 50.4-0.54 50.4 0 46.05 0Q44.17 0 42.97-0.85 41.77-1.7 41.19-3.08L41.19-3.08 39.34-7.43 30.68-7.43 28.28-1.63 31-0.54 31 0 24.3 0ZM34.99-17.88L31.04-8.34 38.98-8.34 34.99-17.88ZM65.82 0.36L54.76-20.85 54.76-1.63 57.66-0.54 57.66 0 50.77 0 50.77-0.54 53.67-1.63 53.67-24.3 51.49-24.84 51.49-25.38 56.03-25.38Q57.91-25.38 59.02-24.6 60.12-23.82 60.92-22.3L60.92-22.3 68.83-7.18 74.88-22.3Q75.5-23.9 76.55-24.64 77.6-25.38 79.78-25.38L79.78-25.38 83.58-25.38 83.58-24.84 81.41-24.3 81.41-1.09 83.58-0.54 83.58 0 73.25 0 73.25-0.54 75.43-1.09 75.43-20.85 66.9 0.36 65.82 0.36ZM86.85 0L86.85-0.54 89.02-1.09 89.02-24.3 86.85-24.84 86.85-25.38 106.25-25.38 106.25-18.86 105.16-18.86Q104.47-19.4 103.96-20.23L103.96-20.23Q102.8-22.19 102.8-24.48L102.8-24.48 95.01-24.48 95.01-13.05 99.18-13.05Q99.43-14.43 100.12-15.63L100.12-15.63Q100.41-16.17 100.81-16.68L100.81-16.68 101.9-16.68 101.9-8.52 100.81-8.52Q100.41-9.03 100.12-9.57L100.12-9.57Q99.43-10.77 99.18-12.15L99.18-12.15 95.01-12.15 95.01-0.91 103.53-0.91Q103.53-3.19 104.69-5.15L104.69-5.15Q105.2-5.98 105.89-6.53L105.89-6.53 106.97-6.53 106.97 0 86.85 0ZM119.12 0.54Q116.55 0.54 114.3-0.62L114.3-0.62Q113.28-1.12 112.59-1.81L112.59-1.81Q112.09-0.98 111.32-0.33L111.32-0.33Q110.67 0.15 110.6 0.18L110.6 0.18 109.69 0.18 109.69-6.71 111.14-6.71Q111.69-4.93 112.67-3.52L112.67-3.52Q114.88-0.36 118.4-0.36L118.4-0.36Q120.46-0.36 121.7-1.6 122.93-2.83 122.93-4.9L122.93-4.9Q122.93-6.09 122.22-7.03 121.51-7.98 120.46-8.7 119.41-9.43 117.53-10.52L117.53-10.52Q115.13-11.86 113.65-12.95 112.16-14.03 111.11-15.68 110.06-17.33 110.06-19.58L110.06-19.58Q110.06-21.36 111.05-22.79 112.05-24.22 114.04-25.08 116.04-25.93 118.94-25.93L118.94-25.93Q121.04-25.93 123.15-24.73L123.15-24.73Q123.94-24.3 124.74-23.57L124.74-23.57Q125.36-24.51 126.01-25.06L126.01-25.06Q126.66-25.53 126.74-25.56L126.74-25.56 127.64-25.56 127.64-18.68 126.19-18.68Q125.72-20.42 124.78-21.83L124.78-21.83Q123.91-23.21 122.62-24.11 121.33-25.02 119.67-25.02L119.67-25.02Q118.25-25.02 117.24-23.9 116.22-22.77 116.22-21.03L116.22-21.03Q116.22-19.69 117-18.62 117.78-17.55 118.92-16.75 120.06-15.96 122.02-14.83L122.02-14.83Q124.31-13.53 125.72-12.51 127.14-11.5 128.11-9.99 129.09-8.49 129.09-6.53L129.09-6.53Q129.09-4.57 127.97-2.96 126.85-1.34 124.6-0.4 122.35 0.54 119.12 0.54L119.12 0.54Z" transform="translate(-1.6299999952316284, 25.93000030517578)"></path></g></g></g></g> <!----></g></g><defs v-gra="od"><linearGradient x1="0" y1="1" x2="0" y2="0" id="38ab8ff4-1841-4926-bd52-d72af16367e9"><stop offset="0%" stop-color="#ff51f9"></stop><stop offset="50%" stop-color="#a348ff"></stop><stop offset="100%" stop-color="#3978ff"></stop></linearGradient><filter id="42443b3f1de60f6b6fd3b6a9844b4764" filterUnits="objectBoundingBox"><feColorMatrix type="matrix" values="0 0 0 0 0.99609375  0 0 0 0 0.99609375  0 0 0 0 0.99609375  0 0 0 1 0"></feColorMatrix></filter><linearGradient x1="0" y1="1" x2="0" y2="0" id="a6abc6d9-0e61-464f-b2be-92dbcd3fbbac"><stop offset="0%" stop-color="#ff51f9"></stop><stop offset="50%" stop-color="#a348ff"></stop><stop offset="100%" stop-color="#3978ff"></stop></linearGradient><filter id="42443b3f1de60f6b6fd3b6a9844b4764" filterUnits="objectBoundingBox"><feColorMatrix type="matrix" values="0 0 0 0 0.99609375  0 0 0 0 0.99609375  0 0 0 0 0.99609375  0 0 0 1 0"></feColorMatrix></filter></defs><defs v-gra="id"><filter id="ced61888-184a-4a18-9fc7-9a1da2b92598" filterUnits="userSpaceOnUse"><feColorMatrix type="matrix" values="0 0 0 0 0.99609375  0 0 0 0 0.99609375  0 0 0 0 0.99609375  0 0 0 1 0"></feColorMatrix></filter><linearGradient x1="0" y1="1" x2="0" y2="0" id="QUJ8LGUBPHWfxmVa5Efh6"><stop offset="0%" stop-color="#ff51f9"></stop><stop offset="50%" stop-color="#a348ff"></stop><stop offset="100%" stop-color="#3978ff"></stop></linearGradient><filter id="42443b3f1de60f6b6fd3b6a9844b4764" filterUnits="objectBoundingBox"><feColorMatrix type="matrix" values="0 0 0 0 0.99609375  0 0 0 0 0.99609375  0 0 0 0 0.99609375  0 0 0 1 0"></feColorMatrix></filter></defs><mask v-gra="im" id="1c5441fa-535b-40a5-8afe-e516d7514360"><g class="iconsvg-imagesvg" filter="url(#ced61888-184a-4a18-9fc7-9a1da2b92598)"><g><rect fill="#ff51f9" fill-opacity="0" stroke-width="2" x="0" y="0" width="60" height="47.06768332862657" class="image-rect"></rect> <svg x="0" y="0" width="60" height="47.06768332862657" filtersec="colorsf2867071385" class="image-svg-svg primary" style="overflow: visible;"><svg xmlns="http://www.w3.org/2000/svg" viewBox="0.0003966689109802246 3.0920000076293945 28.684600830078125 22.501998901367188"><path d="M3.136 11.14s.886-1.142.313-2.728c-.575-1.585-1.914-2.187-1.914-2.187S.533 7.586 1.093 9.131c.559 1.546 2.043 2.009 2.043 2.009zM5.595 11.951s1.549-.124 2.436-1.509c.887-1.384.209-2.932.209-2.932s-1.438.292-2.349 1.713c-.91 1.42-.296 2.728-.296 2.728zM5.752 13.781c-.717 1.527.062 2.745.062 2.745s1.521-.326 2.219-1.813c.697-1.489-.177-2.935-.177-2.935s-1.387.476-2.104 2.003zM9.253 15.011s-1.337.606-1.907 2.192c-.57 1.589.319 2.727.319 2.727s1.482-.467 2.038-2.014c.555-1.547-.45-2.905-.45-2.905zM10.367 23.363s1.286-.875 1.373-2.516c.086-1.642-1.269-2.652-1.269-2.652s-1.106.965-1.195 2.649c-.088 1.683 1.091 2.519 1.091 2.519zM5.111 8.084s1.371-.458 1.773-2.095c.403-1.637-.376-2.881-.376-2.881s-1.588.576-1.981 2.173c-.392 1.596.584 2.803.584 2.803zM3.135 14.621s.509-1.353-.506-2.698C1.612 10.577.156 10.396.156 10.396S-.4 11.992.59 13.304c.99 1.313 2.545 1.317 2.545 1.317zM4.271 18.191s.195-1.432-1.093-2.518c-1.29-1.087-2.75-.939-2.75-.939s-.188 1.68 1.068 2.739c1.258 1.058 2.775.718 2.775.718zM6.001 21.143s-.245-1.424-1.803-2.068c-1.559-.646-2.905-.063-2.905-.063s.33 1.658 1.848 2.288c1.518.627 2.86-.157 2.86-.157zM6.757 22.369c-1.624-.454-2.892.285-2.892.285s.525 1.606 2.107 2.049c1.584.443 2.822-.496 2.822-.496s-.413-1.385-2.037-1.838z" fill="#000000"></path><path d="M5.28 9.06l-.722-.355c-.038.079-3.752 7.968 6.684 16.889l.522-.611C1.828 16.488 5.134 9.359 5.28 9.06zM25.549 11.125s-.887-1.142-.313-2.727c.573-1.586 1.913-2.188 1.913-2.188s1.001 1.36.441 2.906c-.557 1.546-2.041 2.009-2.041 2.009zM23.09 11.936s-1.549-.125-2.437-1.509c-.887-1.384-.209-2.932-.209-2.932s1.438.292 2.35 1.712c.91 1.421.296 2.729.296 2.729zM22.933 13.765c.717 1.527-.062 2.745-.062 2.745s-1.521-.326-2.22-1.813c-.696-1.489.177-2.935.177-2.935s1.388.477 2.105 2.003zM19.432 14.996s1.336.605 1.907 2.194c.57 1.588-.32 2.726-.32 2.726s-1.481-.468-2.037-2.015.45-2.905.45-2.905zM18.316 23.347s-1.285-.874-1.372-2.516c-.086-1.642 1.27-2.653 1.27-2.653s1.104.965 1.194 2.65c.089 1.685-1.092 2.519-1.092 2.519zM23.572 8.069s-1.369-.458-1.771-2.095c-.403-1.637.377-2.882.377-2.882s1.588.576 1.98 2.174c.392 1.595-.586 2.803-.586 2.803zM25.55 14.606s-.509-1.353.505-2.698c1.017-1.346 2.474-1.527 2.474-1.527s.557 1.596-.434 2.908c-.991 1.313-2.545 1.317-2.545 1.317zM24.414 18.176s-.196-1.432 1.093-2.52c1.29-1.086 2.75-.938 2.75-.938s.188 1.681-1.069 2.739-2.774.719-2.774.719zM22.683 21.128s.246-1.425 1.804-2.07c1.56-.646 2.905-.063 2.905-.063s-.33 1.658-1.848 2.287c-1.519.63-2.861-.154-2.861-.154zM21.927 22.354c1.624-.453 2.893.285 2.893.285s-.524 1.605-2.107 2.051c-1.583.441-2.821-.498-2.821-.498s.412-1.384 2.035-1.838z" fill="#000000"></path><path d="M23.404 9.045l.724-.355c.038.079 3.752 7.968-6.685 16.888l-.521-.611c9.934-8.493 6.628-15.624 6.482-15.922z" fill="#000000"></path></svg></svg> <defs><filter id="colors6009601033"><feColorMatrix type="matrix" values="0 0 0 0 0.99609375  0 0 0 0 0.31640625  0 0 0 0 0.97265625  0 0 0 1 0" class="icon-fecolormatrix"></feColorMatrix></filter> <filter id="colorsf2867071385"><feColorMatrix type="matrix" values="0 0 0 0 0.99609375  0 0 0 0 0.99609375  0 0 0 0 0.99609375  0 0 0 1 0" class="icon-fecolormatrix"></feColorMatrix></filter> <filter id="colorsb7106279606"><feColorMatrix type="matrix" values="0 0 0 0 0  0 0 0 0 0  0 0 0 0 0  0 0 0 1 0" class="icon-fecolormatrix"></feColorMatrix></filter></defs></g></g></mask></svg>